<svg xmlns="http://www.w3.org/2000/svg" version="1.1" xmlns:xlink="http://www.w3.org/1999/xlink" xmlns:svgjs="http://svgjs.dev/svgjs" width="1000" height="209" viewBox="0 0 1000 209"><g transform="matrix(1,0,0,1,-0.6060606060606233,-0.5056872785099671)"><svg viewBox="0 0 396 83" data-background-color="#0080ff" preserveAspectRatio="xMidYMid meet" height="209" width="1000" xmlns="http://www.w3.org/2000/svg" xmlns:xlink="http://www.w3.org/1999/xlink"><defs></defs><g id="tight-bounds" transform="matrix(1,0,0,1,0.2400000000000091,0.20082317759008106)"><svg viewBox="0 0 395.52 82.59799475726888" height="82.59799475726888" width="395.52"><g><svg viewBox="0 0 528.1781671775011 110.30152074087562" height="82.59799475726888" width="395.52"><g transform="matrix(1,0,0,1,132.65816717750118,31.475496433585313)"><svg viewBox="0 0 395.52 47.35052787370499" height="47.35052787370499" width="395.52"><g><svg viewBox="0 0 395.52 47.35052787370499" height="47.35052787370499" width="395.52"><g><svg viewBox="0 0 395.52 47.35052787370499" height="47.35052787370499" width="395.52"><g transform="matrix(1,0,0,1,0,0)"><svg width="395.52" viewBox="3.299999952316284 -35.70000076293945 304.32000732421875 36.400001525878906" height="47.35052787370499" data-palette-color="#010c80"><g class="undefined-text-0" data-fill-palette-color="primary" id="text-0"><path d="M3.3 0L3.3-35 14.55-35Q18.85-35 22.23-32.9 25.6-30.8 27.5-26.85 29.4-22.9 29.4-17.5L29.4-17.5Q29.4-12.1 27.5-8.15 25.6-4.2 22.23-2.1 18.85 0 14.55 0L14.55 0 3.3 0ZM8.55-4.8L14.1-4.8Q18.75-4.8 21.18-8.13 23.6-11.45 23.6-17.5L23.6-17.5Q23.6-23.55 21.18-26.88 18.75-30.2 14.1-30.2L14.1-30.2 8.55-30.2 8.55-4.8ZM34.35 0L34.35-35 43.85-35Q49.35-35 52.45-32.3 55.55-29.6 55.55-24.25L55.55-24.25Q55.55-21.15 54.17-18.7 52.8-16.25 50.35-14.9L50.35-14.9 57.2 0 51.15 0 45.15-13.4Q44.85-13.35 44-13.35L44-13.35 39.6-13.35 39.6 0 34.35 0ZM39.6-18L43.4-18Q46.8-18 48.45-19.53 50.1-21.05 50.1-24.15L50.1-24.15Q50.1-27.3 48.45-28.83 46.8-30.35 43.4-30.35L43.4-30.35 39.6-30.35 39.6-18ZM79.2 0L76.55-9 66.1-9 63.5 0 58.1 0 68.8-35 73.9-35 84.6 0 79.2 0ZM67.5-13.85L75.15-13.85 71.35-26.95 67.5-13.85ZM102.34 0.7Q97.49 0.7 93.87-1.6 90.24-3.9 88.27-8.03 86.29-12.15 86.29-17.5L86.29-17.5Q86.29-22.95 88.37-27.08 90.44-31.2 94.12-33.45 97.79-35.7 102.39-35.7L102.39-35.7Q106.74-35.7 110.34-34.15L110.34-34.15 109.74-29.05Q108.04-29.85 106.47-30.25 104.89-30.65 102.99-30.65L102.99-30.65Q97.84-30.65 94.97-27.03 92.09-23.4 92.09-17.5L92.09-17.5Q92.09-11.45 94.82-7.9 97.54-4.35 102.74-4.35L102.74-4.35Q104.59-4.35 106.09-4.9L106.09-4.9 106.09-12.75 101.84-12.75 101.84-17.55 111.34-17.55 111.34-1.7Q109.64-0.6 107.29 0.05 104.94 0.7 102.34 0.7L102.34 0.7ZM129.69 0.7Q125.39 0.7 122.02-1.55 118.64-3.8 116.74-7.93 114.84-12.05 114.84-17.5L114.84-17.5Q114.84-22.95 116.74-27.08 118.64-31.2 122.02-33.45 125.39-35.7 129.69-35.7L129.69-35.7Q133.99-35.7 137.34-33.45 140.69-31.2 142.59-27.08 144.49-22.95 144.49-17.5L144.49-17.5Q144.49-12.05 142.59-7.93 140.69-3.8 137.34-1.55 133.99 0.7 129.69 0.7L129.69 0.7ZM129.69-4.55Q134.14-4.55 136.54-8.15 138.94-11.75 138.94-17.5L138.94-17.5Q138.94-23.25 136.54-26.85 134.14-30.45 129.69-30.45L129.69-30.45Q125.24-30.45 122.84-26.85 120.44-23.25 120.44-17.5L120.44-17.5Q120.44-11.75 122.84-8.15 125.24-4.55 129.69-4.55L129.69-4.55ZM179.94 0L174.44 0 171.99-24 164.04-7.15 156.09-24 153.59 0 148.09 0 152.14-35 156.49-35 164.04-18.15 171.54-35 175.89-35 179.94 0ZM185.29 0L185.29-35 190.54-35 190.54 0 185.29 0ZM197.33 0L197.33-35 206.83-35Q212.33-35 215.43-32.3 218.53-29.6 218.53-24.25L218.53-24.25Q218.53-21.15 217.16-18.7 215.78-16.25 213.33-14.9L213.33-14.9 220.18 0 214.13 0 208.13-13.4Q207.83-13.35 206.98-13.35L206.98-13.35 202.58-13.35 202.58 0 197.33 0ZM202.58-18L206.38-18Q209.78-18 211.43-19.53 213.08-21.05 213.08-24.15L213.08-24.15Q213.08-27.3 211.43-28.83 209.78-30.35 206.38-30.35L206.38-30.35 202.58-30.35 202.58-18Z" fill="#010c80" data-fill-palette-color="primary"></path><path d="M241.48 0L238.83-9 228.38-9 225.78 0 220.38 0 231.08-35 236.18-35 246.88 0 241.48 0ZM229.78-13.85L237.43-13.85 233.63-26.95 229.78-13.85ZM250.38 0L250.38-35 255.63-35 255.63-4.8 268.28-4.8 268.28 0 250.38 0ZM271.98 0L271.98-35 277.23-35 277.23 0 271.98 0ZM283.92 0L283.92-35 289.57-35 302.42-11.05 302.42-35 307.62-35 307.62 0 302.92 0 289.17-25.4 289.17 0 283.92 0Z" fill="#77d4fc" data-fill-palette-color="secondary"></path></g></svg></g></svg></g></svg></g></svg></g><g><svg viewBox="0 0 110.30152074087562 110.30152074087562" height="110.30152074087562" width="110.30152074087562"><g><svg></svg></g><g id="icon-0"><svg viewBox="0 0 110.30152074087562 110.30152074087562" height="110.30152074087562" width="110.30152074087562"><g><path d="M0 55.151c0-30.459 24.692-55.151 55.151-55.151 30.459 0 55.151 24.692 55.151 55.151 0 30.459-24.692 55.151-55.151 55.151-30.459 0-55.151-24.692-55.151-55.151zM55.151 106.031c28.101 0 50.881-22.78 50.88-50.88 0-28.101-22.78-50.881-50.88-50.881-28.101 0-50.881 22.78-50.881 50.881 0 28.101 22.78 50.881 50.881 50.88z" data-fill-palette-color="accent" fill="#77d4fc" stroke="transparent"></path></g><g transform="matrix(1,0,0,1,31.55168433004032,27.814667767725684)"><svg viewBox="0 0 47.198152080794976 54.67218520542425" height="54.67218520542425" width="47.198152080794976"><g><svg xmlns="http://www.w3.org/2000/svg" xmlns:xlink="http://www.w3.org/1999/xlink" version="1.1" x="0" y="0" viewBox="9.63800048828125 3.246999979019165 80.7239990234375 93.50699615478516" enable-background="new 0 0 100 100" xml:space="preserve" height="54.67218520542425" width="47.198152080794976" class="icon-x-0" data-fill-palette-color="accent" id="x-0"><g fill="#77d4fc" data-fill-palette-color="accent"><g fill="#77d4fc" data-fill-palette-color="accent"><polygon points="36.703,11.011 9.638,26.636 9.638,38.757 36.703,23.131 63.767,38.757 63.767,26.636   " fill="#77d4fc" data-fill-palette-color="accent"></polygon></g><g fill="#77d4fc" data-fill-palette-color="accent"><polygon points="63.298,89.092 36.233,73.467 36.233,61.348 63.298,76.973 90.362,61.348 90.362,73.467   " fill="#77d4fc" data-fill-palette-color="accent"></polygon></g><g fill="#77d4fc" data-fill-palette-color="accent"><polygon points="9.638,42.012 36.703,26.386 47.198,32.446 20.134,48.072 20.134,79.324 9.638,73.264   " fill="#77d4fc" data-fill-palette-color="accent"></polygon></g><g fill="#77d4fc" data-fill-palette-color="accent"><polygon points="77.083,18.872 50.018,3.247 39.522,9.307 66.586,24.932 66.586,56.184 77.083,50.124   " fill="#77d4fc" data-fill-palette-color="accent"></polygon></g><g fill="#77d4fc" data-fill-palette-color="accent"><polygon points="23.01,81.127 23.011,49.876 33.507,43.816 33.507,75.068 60.571,90.693 50.075,96.754   " fill="#77d4fc" data-fill-palette-color="accent"></polygon></g><g fill="#77d4fc" data-fill-palette-color="accent"><polygon points="90.362,58.092 90.362,26.84 79.866,20.78 79.866,52.031 52.802,67.658 63.298,73.719   " fill="#77d4fc" data-fill-palette-color="accent"></polygon></g></g></svg></g></svg></g></svg></g></svg></g></svg></g></svg><rect width="395.52" height="82.59799475726888" fill="none" stroke="none" visibility="hidden"></rect></g></svg></g></svg>